<?xml version="1.0" encoding="UTF-8"?>
<svg width="29px" height="33px" viewBox="0 0 29 33" version="1.1" xmlns="http://www.w3.org/2000/svg" xmlns:xlink="http://www.w3.org/1999/xlink">
    <!-- Generator: Sketch 57.1 (83088) - https://sketch.com -->
    <title>编组 4</title>
    <desc>Created with Sketch.</desc>
    <g id="枫页C端设计定稿" stroke="none" stroke-width="1" fill="none" fill-rule="evenodd">
        <g id="未发货_订单详情" transform="translate(-694.000000, -383.000000)" fill="#545454" fill-rule="nonzero">
            <g id="编组-4" transform="translate(694.000000, 383.000000)">
                <path d="M5,5 L19,5 C21.7614237,5 24,7.23857625 24,10 L24,28 C24,30.7614237 21.7614237,33 19,33 L5,33 C2.23857625,33 0,30.7614237 0,28 L0,10 C0,7.23857625 2.23857625,5 5,5 Z M5,7 C3.34314575,7 2,8.34314575 2,10 L2,28 C2,29.6568542 3.34314575,31 5,31 L19,31 C20.6568542,31 22,29.6568542 22,28 L22,10 C22,8.34314575 20.6568542,7 19,7 L5,7 Z" id="矩形"></path>
                <path d="M7,5.5390625 L7,5 C7,3.34314575 8.34314575,2 10,2 L23.9892578,2 C25.6461121,2 26.9892578,3.34314575 26.9892578,5 L26.9892578,22.9487305 C26.9892578,24.6055847 25.6461121,25.9487305 23.9892578,25.9487305 L23.0212402,25.9487305 C22.4689555,25.9487305 22.0212402,26.3964457 22.0212402,26.9487305 C22.0212402,27.5010152 22.4689555,27.9487305 23.0212402,27.9487305 L23.9892578,27.9487305 C26.7506816,27.9487305 28.9892578,25.7101542 28.9892578,22.9487305 L28.9892578,5 C28.9892578,2.23857625 26.7506816,0 23.9892578,0 L10,0 C7.23857625,0 5,2.23857625 5,5 L5,5.5390625 C5,6.09134725 5.44771525,6.5390625 6,6.5390625 C6.55228475,6.5390625 7,6.09134725 7,5.5390625 Z" id="路径-2"></path>
                <path d="M6,16.1816406 L18,16.1816406 C18.5522847,16.1816406 19,15.7339254 19,15.1816406 C19,14.6293559 18.5522847,14.1816406 18,14.1816406 L6,14.1816406 C5.44771525,14.1816406 5,14.6293559 5,15.1816406 C5,15.7339254 5.44771525,16.1816406 6,16.1816406 Z" id="路径-3"></path>
                <path d="M6,22 L18,22 C18.5522847,22 19,21.5522847 19,21 C19,20.4477153 18.5522847,20 18,20 L6,20 C5.44771525,20 5,20.4477153 5,21 C5,21.5522847 5.44771525,22 6,22 Z" id="路径-3"></path>
            </g>
        </g>
    </g>
</svg>