<?xml version="1.0" encoding="UTF-8"?>
<svg width="26px" height="31px" viewBox="0 0 26 31" version="1.1" xmlns="http://www.w3.org/2000/svg" xmlns:xlink="http://www.w3.org/1999/xlink">
    <!-- Generator: Sketch 57.1 (83088) - https://sketch.com -->
    <title>形状结合 2</title>
    <desc>Created with Sketch.</desc>
    <g id="枫页C端设计定稿" stroke="none" stroke-width="1" fill="none" fill-rule="evenodd">
        <g id="未发货_订单详情" transform="translate(-15.000000, -337.000000)" fill="#333333" fill-rule="nonzero">
            <g id="编组-6" transform="translate(0.000000, 296.000000)">
                <g id="编组-11" transform="translate(15.000000, 41.000000)">
                    <g id="形状结合-2">
                        <path d="M13,0 C20.1762505,0 26,5.73387686 26,12.8148148 C26,19.2340607 17.1605961,31 13,31 C8.83940385,31 0,19.2340607 0,12.8148148 C0,5.73387686 5.82374954,0 13,0 Z M13,2 C6.92141647,2 2,6.84546868 2,12.8148148 C2,18.2336083 10.0884732,29 13,29 C15.9115268,29 24,18.2336083 24,12.8148148 C24,6.84546868 19.0785835,2 13,2 Z M13,6.44444444 C16.5612957,6.44444444 19.4545455,9.29304525 19.4545455,12.8148148 C19.4545455,16.3365844 16.5612957,19.1851852 13,19.1851852 C9.43870426,19.1851852 6.54545455,16.3365844 6.54545455,12.8148148 C6.54545455,9.29304525 9.43870426,6.44444444 13,6.44444444 Z M13,8.44444444 C10.5363712,8.44444444 8.54545455,10.4046371 8.54545455,12.8148148 C8.54545455,15.2249926 10.5363712,17.1851852 13,17.1851852 C15.4636288,17.1851852 17.4545455,15.2249926 17.4545455,12.8148148 C17.4545455,10.4046371 15.4636288,8.44444444 13,8.44444444 Z" id="形状结合"></path>
                    </g>
                </g>
            </g>
        </g>
    </g>
</svg>