<?xml version="1.0" encoding="UTF-8"?>
<svg width="30px" height="27px" viewBox="0 0 30 27" version="1.1" xmlns="http://www.w3.org/2000/svg" xmlns:xlink="http://www.w3.org/1999/xlink">
    <title>编组 12</title>
    <g id="枫页C端设计定稿" stroke="none" stroke-width="1" fill="none" fill-rule="evenodd">
        <g id="订单详情_待付款" transform="translate(-16.000000, -172.000000)" fill="#FFFFFF">
            <g id="编组-4" transform="translate(16.000000, 170.000000)">
                <g id="编组-15" transform="translate(0.000000, 2.000000)">
                    <g id="编组-12">
                        <path d="M19.5036855,8.18181818 L30,8.18181818 L30,18 L19.5036855,18 C16.7924695,18 14.5945946,15.8021251 14.5945946,13.0909091 C14.5945946,10.379693 16.7924695,8.18181818 19.5036855,8.18181818 Z M19.5036855,10.1818182 C17.897039,10.1818182 16.5945946,11.4842625 16.5945946,13.0909091 C16.5945946,14.6975556 17.897039,16 19.5036855,16 L28,16 L28,10.1818182 L19.5036855,10.1818182 Z" id="矩形" fill-rule="nonzero"></path>
                        <path d="M3.28445748,0 L26.7155425,0 C28.5294983,0 30,1.4705017 30,3.28445748 L30,23.7155425 C30,25.5294983 28.5294983,27 26.7155425,27 L3.28445748,27 C1.4705017,27 0,25.5294983 0,23.7155425 L0,3.28445748 C0,1.4705017 1.4705017,0 3.28445748,0 Z M3.28445748,2 C2.5750712,2 2,2.5750712 2,3.28445748 L2,23.7155425 C2,24.4249288 2.5750712,25 3.28445748,25 L26.7155425,25 C27.4249288,25 28,24.4249288 28,23.7155425 L28,3.28445748 C28,2.5750712 27.4249288,2 26.7155425,2 L3.28445748,2 Z" id="矩形" fill-rule="nonzero"></path>
                        <ellipse id="椭圆形" cx="21.7702703" cy="12.9681818" rx="1.5" ry="1.51363636"></ellipse>
                    </g>
                </g>
            </g>
        </g>
    </g>
</svg>