<?xml version="1.0" encoding="UTF-8"?>
<svg width="100px" height="100px" viewBox="0 0 100 100" version="1.1" xmlns="http://www.w3.org/2000/svg" xmlns:xlink="http://www.w3.org/1999/xlink">
    <title>形状结合</title>
    <g id="页面-3" stroke="none" stroke-width="1" fill="none" fill-rule="evenodd">
        <g id="00_订单交易成功_在线支付" transform="translate(-325.000000, -247.000000)" fill="#FFFFFF">
            <path d="M375,247 C402.614237,247 425,269.385763 425,297 C425,324.614237 402.614237,347 375,347 C347.385763,347 325,324.614237 325,297 C325,269.385763 347.385763,247 375,247 Z M399.879139,281.436134 C398.188557,279.745553 395.479414,279.694323 393.727101,281.282445 L393.727101,281.282445 L393.565685,281.436134 L366.377688,308.622575 L354.3007,296.545697 L354.139284,296.392008 C352.386972,294.803886 349.677828,294.855116 347.987247,296.545697 C346.243834,298.28911 346.243834,301.115739 347.987247,302.859151 L347.987247,302.859151 L363.139535,318.011439 L363.30095,318.165128 C363.770447,318.590634 364.308632,318.898456 364.877679,319.088779 C366.394012,319.644872 368.151559,319.35123 369.413147,318.207853 L369.413147,318.207853 L369.574562,318.054164 L399.879139,287.749587 L400.037476,287.583035 C401.620848,285.830569 401.568069,283.125064 399.879139,281.436134 Z" id="形状结合"></path>
        </g>
    </g>
</svg>